<?xml version="1.0" encoding="UTF-8"?>
<svg width="31px" height="24px" viewBox="0 0 31 24" version="1.1" xmlns="http://www.w3.org/2000/svg" xmlns:xlink="http://www.w3.org/1999/xlink">
    <!-- Generator: Sketch 53.1 (72631) - https://sketchapp.com -->
    <title>Group</title>
    <desc>Created with Sketch.</desc>
    <defs>
        <polygon id="path-1" points="23.3064732 8.08004941 23.6153452 6.9030101 30.3024246 10.8407416 30.3024246 12.081983 23.6153452 16.0197145 23.3064732 14.8426752 29.1287109 11.4613623"></polygon>
        <polygon id="path-2" points="1.21104413 11.5986622 7.03328185 14.8781285 6.72440982 16.0197148 0.0373304287 12.2005896 0.0373304287 10.9967349 6.72440982 7.17760958 7.03328185 8.31919594"></polygon>
    </defs>
    <g id="Page-1" stroke="none" stroke-width="1" fill="none" fill-rule="evenodd">
        <g id="Group" transform="translate(0.263631, 0.000000)" fill="#000000" fill-rule="nonzero">
            <polygon id="Bar" points="11.8346097 17.2418089 11.2557174 16.9268234 16.8828957 6.58498214 17.4617881 6.89996769"></polygon>
            <path d="M16.8915757,5.14714429 C16.9053985,5.12198127 16.9367851,5.11287054 16.9614028,5.12664012 L18.5148183,5.99552047 C18.5395599,6.00935937 18.5484107,6.04097807 18.5345887,6.06613971 L18.0107563,7.01972774 C17.9969335,7.04489076 17.965547,7.05400149 17.9409292,7.04023191 L16.3875138,6.17135153 C16.3627721,6.15751266 16.3539214,6.12589396 16.3677433,6.10073232 L16.8915757,5.14714429 L16.8915757,5.14714429 Z" id="Right"></path>
            <path d="M10.6053585,16.8577586 C10.6191813,16.8325956 10.6505678,16.8234849 10.6751856,16.8372545 L12.2286011,17.7061348 C12.2533427,17.7199737 12.2621935,17.7515924 12.2483715,17.776754 L11.7245391,18.7303421 C11.7107163,18.7555051 11.6793298,18.7646158 11.654712,18.7508462 L10.1012965,17.8819659 C10.0765549,17.868127 10.0677041,17.8365083 10.0815261,17.8113466 L10.6053585,16.8577586 L10.6053585,16.8577586 Z" id="Left"></path>
            <path d="M10.2574123,17.9586141 C10.2732008,17.9449492 10.2963248,17.941857 10.3155192,17.9525907 L11.3667489,18.5404486 C11.3858912,18.5511531 11.3955616,18.5724124 11.3925291,18.5931052 L10.2574123,17.9586141 Z M11.3448327,18.6867228 L8.53528308,23.8000959 C8.52155304,23.8250845 8.49038298,23.8341355 8.46570741,23.8203366 L7.41447767,23.2324787 C7.38978212,23.2186688 7.38085135,23.1872917 7.39462288,23.1622276 L10.2040554,18.0490677 L11.3448327,18.6867228 Z" id="Sleeve-Left"></path>
            <path d="M18.367042,5.76738964 L21.1707967,0.66456345 C21.1845682,0.639499307 21.1756374,0.6081223 21.1509419,0.594312312 L20.0997121,0.00645441678 C20.0750366,-0.00734440203 20.0438665,0.00170652348 20.0301364,0.0266951685 L17.2262647,5.12973452 L18.367042,5.76738964 Z M18.3161618,5.85922757 C18.3011819,5.88015946 18.2727553,5.88698114 18.2499003,5.8742004 L17.1986706,5.2863425 C17.1758646,5.27358914 17.1665032,5.24585408 17.1760503,5.22194465 L18.3161618,5.85922757 Z" id="Sleeve-Right"></path>
            <g id="&gt;">
                <use xlink:href="#path-1"></use>
                <use xlink:href="#path-1"></use>
            </g>
            <g id="&lt;">
                <use xlink:href="#path-2"></use>
                <use xlink:href="#path-2"></use>
            </g>
        </g>
    </g>
</svg>