<svg width="793" height="160" viewBox="0 0 793 160" fill="none" xmlns="http://www.w3.org/2000/svg">
<path d="M264.793 83.9153L249.491 131.735H232.207L224.488 106.186L216.358 131.735H199.075L183.773 83.9153H200.373L208.707 111.104L217.52 83.9153H232.344L240.678 111.446L249.491 83.9153H264.793Z" fill="#0E4652"/>
<path d="M290.319 132.828C285.173 132.828 280.55 131.758 276.452 129.617C272.353 127.477 269.142 124.516 266.819 120.736C264.497 116.911 263.335 112.607 263.335 107.825C263.335 103.043 264.497 98.7621 266.819 94.9821C269.142 91.1565 272.353 88.1735 276.452 86.033C280.55 83.8925 285.173 82.8223 290.319 82.8223C295.466 82.8223 300.088 83.8925 304.187 86.033C308.286 88.1735 311.496 91.1565 313.819 94.9821C316.142 98.7621 317.303 103.043 317.303 107.825C317.303 112.607 316.142 116.911 313.819 120.736C311.496 124.516 308.286 127.477 304.187 129.617C300.088 131.758 295.466 132.828 290.319 132.828ZM290.319 119.78C292.323 119.78 294.122 119.302 295.716 118.345C297.356 117.343 298.653 115.954 299.61 114.178C300.566 112.357 301.044 110.239 301.044 107.825C301.044 105.411 300.566 103.316 299.61 101.54C298.653 99.7185 297.356 98.3295 295.716 97.3731C294.122 96.3711 292.323 95.8702 290.319 95.8702C288.315 95.8702 286.494 96.3711 284.854 97.3731C283.26 98.3295 281.985 99.7185 281.029 101.54C280.072 103.316 279.594 105.411 279.594 107.825C279.594 110.239 280.072 112.357 281.029 114.178C281.985 115.954 283.26 117.343 284.854 118.345C286.494 119.302 288.315 119.78 290.319 119.78Z" fill="#0E4652"/>
<path d="M345.835 132.828C340.688 132.828 336.066 131.758 331.967 129.617C327.868 127.477 324.658 124.516 322.335 120.736C320.012 116.911 318.851 112.607 318.851 107.825C318.851 103.043 320.012 98.7621 322.335 94.9821C324.658 91.1565 327.868 88.1735 331.967 86.033C336.066 83.8925 340.688 82.8223 345.835 82.8223C350.981 82.8223 355.604 83.8925 359.702 86.033C363.801 88.1735 367.012 91.1565 369.335 94.9821C371.657 98.7621 372.819 103.043 372.819 107.825C372.819 112.607 371.657 116.911 369.335 120.736C367.012 124.516 363.801 127.477 359.702 129.617C355.604 131.758 350.981 132.828 345.835 132.828ZM345.835 119.78C347.839 119.78 349.638 119.302 351.232 118.345C352.871 117.343 354.169 115.954 355.125 114.178C356.082 112.357 356.56 110.239 356.56 107.825C356.56 105.411 356.082 103.316 355.125 101.54C354.169 99.7185 352.871 98.3295 351.232 97.3731C349.638 96.3711 347.839 95.8702 345.835 95.8702C343.831 95.8702 342.009 96.3711 340.37 97.3731C338.776 98.3295 337.5 99.7185 336.544 101.54C335.588 103.316 335.109 105.411 335.109 107.825C335.109 110.239 335.588 112.357 336.544 114.178C337.5 115.954 338.776 117.343 340.37 118.345C342.009 119.302 343.831 119.78 345.835 119.78Z" fill="#0E4652"/>
<path d="M376.279 83.9153H399.847C405.176 83.9153 409.867 84.8944 413.92 86.8528C418.019 88.7656 421.184 91.5209 423.416 95.1187C425.693 98.7166 426.831 102.952 426.831 107.825C426.831 112.698 425.693 116.934 423.416 120.531C421.184 124.129 418.019 126.907 413.92 128.866C409.867 130.778 405.176 131.735 399.847 131.735H376.279V83.9153ZM399.164 119.165C402.625 119.165 405.381 118.186 407.43 116.228C409.525 114.224 410.573 111.423 410.573 107.825C410.573 104.227 409.525 101.449 407.43 99.4908C405.381 97.4869 402.625 96.485 399.164 96.485H392.401V119.165H399.164Z" fill="#0E4652"/>
<path d="M506.402 83.9153L491.099 131.735H473.816L466.097 106.186L457.967 131.735H440.684L425.382 83.9153H441.982L450.316 111.104L459.129 83.9153H473.953L482.287 111.446L491.099 83.9153H506.402Z" fill="#0E4652"/>
<path d="M531.928 132.828C526.782 132.828 522.159 131.758 518.06 129.617C513.962 127.477 510.751 124.516 508.428 120.736C506.105 116.911 504.944 112.607 504.944 107.825C504.944 103.043 506.105 98.7621 508.428 94.9821C510.751 91.1565 513.962 88.1735 518.06 86.033C522.159 83.8925 526.782 82.8223 531.928 82.8223C537.074 82.8223 541.697 83.8925 545.796 86.033C549.895 88.1735 553.105 91.1565 555.428 94.9821C557.751 98.7621 558.912 103.043 558.912 107.825C558.912 112.607 557.751 116.911 555.428 120.736C553.105 124.516 549.895 127.477 545.796 129.617C541.697 131.758 537.074 132.828 531.928 132.828ZM531.928 119.78C533.932 119.78 535.731 119.302 537.325 118.345C538.964 117.343 540.262 115.954 541.219 114.178C542.175 112.357 542.653 110.239 542.653 107.825C542.653 105.411 542.175 103.316 541.219 101.54C540.262 99.7185 538.964 98.3295 537.325 97.3731C535.731 96.3711 533.932 95.8702 531.928 95.8702C529.924 95.8702 528.102 96.3711 526.463 97.3731C524.869 98.3295 523.594 99.7185 522.637 101.54C521.681 103.316 521.203 105.411 521.203 107.825C521.203 110.239 521.681 112.357 522.637 114.178C523.594 115.954 524.869 117.343 526.463 118.345C528.102 119.302 529.924 119.78 531.928 119.78Z" fill="#0E4652"/>
<path d="M582.867 119.712H578.494V131.735H562.372V83.9153H585.394C589.812 83.9153 593.66 84.644 596.939 86.1013C600.218 87.5587 602.746 89.6536 604.522 92.3862C606.298 95.1187 607.186 98.3067 607.186 101.95C607.186 105.366 606.412 108.349 604.864 110.899C603.315 113.45 601.084 115.476 598.169 116.979L608.211 131.735H590.996L582.867 119.712ZM590.928 101.95C590.928 100.174 590.381 98.8077 589.288 97.8513C588.195 96.8493 586.555 96.3484 584.369 96.3484H578.494V107.552H584.369C586.555 107.552 588.195 107.074 589.288 106.117C590.381 105.115 590.928 103.726 590.928 101.95Z" fill="#0E4652"/>
<path d="M630.353 115.886L626.732 119.917V131.735H610.883V83.9153H626.732V101.267L642.444 83.9153H660.001L640.873 104.956L660.957 131.735H642.307L630.353 115.886Z" fill="#0E4652"/>
<path d="M700.487 119.575V131.735H660.728V83.9153H699.599V96.0751H676.577V101.677H696.798V113.29H676.577V119.575H700.487Z" fill="#0E4652"/>
<path d="M724.796 119.712H720.424V131.735H704.302V83.9153H727.324C731.741 83.9153 735.59 84.644 738.869 86.1013C742.148 87.5587 744.675 89.6536 746.452 92.3862C748.228 95.1187 749.116 98.3067 749.116 101.95C749.116 105.366 748.342 108.349 746.793 110.899C745.245 113.45 743.013 115.476 740.098 116.979L750.141 131.735H732.925L724.796 119.712ZM732.857 101.95C732.857 100.174 732.311 98.8077 731.218 97.8513C730.125 96.8493 728.485 96.3484 726.299 96.3484H720.424V107.552H726.299C728.485 107.552 730.125 107.074 731.218 106.117C732.311 105.115 732.857 103.726 732.857 101.95Z" fill="#0E4652"/>
<path d="M770.643 132.828C766.68 132.828 762.809 132.395 759.029 131.53C755.295 130.619 752.221 129.412 749.807 127.909L754.999 116.159C757.276 117.48 759.826 118.55 762.65 119.37C765.474 120.144 768.183 120.531 770.779 120.531C773.011 120.531 774.605 120.326 775.561 119.917C776.518 119.461 776.996 118.801 776.996 117.935C776.996 116.934 776.358 116.182 775.083 115.681C773.853 115.18 771.804 114.634 768.935 114.042C765.246 113.267 762.172 112.448 759.712 111.582C757.253 110.671 755.113 109.214 753.291 107.21C751.469 105.161 750.558 102.406 750.558 98.9443C750.558 95.9385 751.401 93.2059 753.086 90.7466C754.771 88.2874 757.276 86.3518 760.601 84.94C763.971 83.5282 768.047 82.8223 772.829 82.8223C776.108 82.8223 779.318 83.1866 782.461 83.9153C785.649 84.5984 788.45 85.6231 790.863 86.9894L786.013 98.671C781.322 96.3028 776.882 95.1187 772.692 95.1187C768.548 95.1187 766.475 96.1207 766.475 98.1245C766.475 99.0809 767.09 99.8096 768.32 100.311C769.55 100.766 771.576 101.267 774.4 101.813C778.043 102.497 781.117 103.294 783.622 104.204C786.127 105.07 788.29 106.504 790.112 108.508C791.979 110.512 792.913 113.245 792.913 116.706C792.913 119.712 792.07 122.444 790.385 124.903C788.7 127.317 786.173 129.253 782.802 130.71C779.478 132.122 775.425 132.828 770.643 132.828Z" fill="#0E4652"/>
<g opacity="0.6">
<path d="M195.446 67.9128C192.731 67.9128 190.102 67.5004 187.559 66.6756C185.05 65.8164 183.074 64.7166 181.63 63.3763L183.538 59.3553C184.912 60.5925 186.665 61.6064 188.796 62.3968C190.961 63.1529 193.178 63.5309 195.446 63.5309C198.436 63.5309 200.67 63.0326 202.148 62.036C203.626 61.0049 204.364 59.6474 204.364 57.9634C204.364 56.7262 203.952 55.7295 203.127 54.9734C202.337 54.1829 201.34 53.5815 200.137 53.1691C198.969 52.7567 197.302 52.2927 195.137 51.7772C192.422 51.1242 190.222 50.4712 188.538 49.8182C186.889 49.1653 185.462 48.1686 184.259 46.8283C183.091 45.4536 182.507 43.6149 182.507 41.3123C182.507 39.3877 183.005 37.6521 184.002 36.1056C185.033 34.559 186.579 33.3218 188.641 32.3938C190.703 31.4659 193.264 31.002 196.322 31.002C198.453 31.002 200.55 31.2769 202.612 31.8268C204.674 32.3767 206.444 33.1671 207.922 34.1981L206.22 38.3223C204.708 37.36 203.093 36.6382 201.374 36.1571C199.656 35.6416 197.972 35.3838 196.322 35.3838C193.401 35.3838 191.202 35.9165 189.724 36.9819C188.28 38.0473 187.559 39.422 187.559 41.106C187.559 42.3433 187.971 43.3571 188.796 44.1476C189.621 44.9037 190.635 45.5051 191.837 45.9519C193.075 46.3643 194.742 46.8111 196.838 47.2922C199.553 47.9452 201.735 48.5982 203.385 49.2512C205.035 49.9042 206.444 50.9008 207.612 52.2412C208.815 53.5815 209.417 55.3858 209.417 57.6541C209.417 59.5443 208.901 61.2799 207.87 62.8608C206.839 64.4073 205.275 65.6446 203.179 66.5725C201.082 67.466 198.505 67.9128 195.446 67.9128Z" fill="#0E4652"/>
<path d="M226.897 51.4679L220.299 58.1696V67.5004H215.144V31.4144H220.299V51.571L239.888 31.4144H245.765L230.351 47.6531L246.745 67.5004H240.713L226.897 51.4679Z" fill="#0E4652"/>
<path d="M276.58 63.0154V67.5004H250.392V31.4144H275.858V35.8993H255.547V46.9829H273.642V51.3648H255.547V63.0154H276.58Z" fill="#0E4652"/>
<path d="M290.289 35.8993H277.916V31.4144H307.765V35.8993H295.392V67.5004H290.289V35.8993Z" fill="#0E4652"/>
<path d="M327.207 67.9128C323.599 67.9128 320.334 67.1224 317.412 65.5415C314.526 63.9262 312.257 61.7266 310.608 58.9429C308.958 56.1247 308.133 52.9629 308.133 49.4574C308.133 45.9519 308.958 42.8072 310.608 40.0235C312.257 37.2053 314.543 35.0058 317.464 33.4249C320.385 31.8096 323.65 31.002 327.259 31.002C330.077 31.002 332.655 31.4831 334.992 32.4454C337.329 33.3733 339.322 34.7652 340.972 36.6211L337.621 39.8688C334.906 37.0163 331.52 35.59 327.465 35.59C324.784 35.59 322.361 36.1915 320.196 37.3943C318.031 38.5972 316.33 40.264 315.093 42.3948C313.89 44.4913 313.288 46.8454 313.288 49.4574C313.288 52.0693 313.89 54.4407 315.093 56.5715C316.33 58.6679 318.031 60.3176 320.196 61.5204C322.361 62.7233 324.784 63.3247 327.465 63.3247C331.486 63.3247 334.871 61.8813 337.621 58.9944L340.972 62.2422C339.322 64.098 337.311 65.5071 334.94 66.4694C332.603 67.4317 330.025 67.9128 327.207 67.9128Z" fill="#0E4652"/>
<path d="M377.555 31.4144V67.5004H372.4V51.4163H351.676V67.5004H346.521V31.4144H351.676V46.9314H372.4V31.4144H377.555Z" fill="#0E4652"/>
<path d="M401.502 67.9128C396.691 67.9128 392.945 66.5381 390.264 63.7887C387.583 61.0393 386.243 57.087 386.243 51.9319V31.4144H391.398V51.7257C391.398 59.4584 394.783 63.3247 401.554 63.3247C404.853 63.3247 407.379 62.3796 409.132 60.4894C410.885 58.5648 411.761 55.6436 411.761 51.7257V31.4144H416.761V51.9319C416.761 57.1214 415.421 61.0908 412.74 63.8403C410.06 66.5553 406.314 67.9128 401.502 67.9128Z" fill="#0E4652"/>
<path d="M439.6 31.4144C444.274 31.4144 447.951 32.5313 450.632 34.7652C453.312 36.9991 454.653 40.075 454.653 43.9929C454.653 47.9108 453.312 50.9867 450.632 53.2206C447.951 55.4545 444.274 56.5715 439.6 56.5715H430.681V67.5004H425.526V31.4144H439.6ZM439.445 52.0865C442.71 52.0865 445.202 51.3992 446.92 50.0245C448.638 48.6154 449.497 46.6049 449.497 43.9929C449.497 41.381 448.638 39.3877 446.92 38.013C445.202 36.6039 442.71 35.8993 439.445 35.8993H430.681V52.0865H439.445Z" fill="#0E4652"/>
<path d="M478.121 35.8993V48.4779H496.215V52.9113H478.121V67.5004H472.965V31.4144H498.432V35.8993H478.121Z" fill="#0E4652"/>
<path d="M519.772 67.9128C516.129 67.9128 512.847 67.1224 509.926 65.5415C507.004 63.9262 504.702 61.7095 503.018 58.8913C501.368 56.0732 500.543 52.9285 500.543 49.4574C500.543 45.9863 501.368 42.8416 503.018 40.0235C504.702 37.2053 507.004 35.0058 509.926 33.4249C512.847 31.8096 516.129 31.002 519.772 31.002C523.38 31.002 526.645 31.8096 529.567 33.4249C532.488 35.0058 534.773 37.2053 536.423 40.0235C538.073 42.8072 538.897 45.9519 538.897 49.4574C538.897 52.9629 538.073 56.1247 536.423 58.9429C534.773 61.7266 532.488 63.9262 529.567 65.5415C526.645 67.1224 523.38 67.9128 519.772 67.9128ZM519.772 63.3247C522.418 63.3247 524.79 62.7233 526.886 61.5204C529.017 60.3176 530.684 58.6679 531.886 56.5715C533.124 54.4407 533.742 52.0693 533.742 49.4574C533.742 46.8454 533.124 44.4913 531.886 42.3948C530.684 40.264 529.017 38.5972 526.886 37.3943C524.79 36.1915 522.418 35.59 519.772 35.59C517.126 35.59 514.72 36.1915 512.555 37.3943C510.424 38.5972 508.74 40.264 507.503 42.3948C506.3 44.4913 505.698 46.8454 505.698 49.4574C505.698 52.0693 506.3 54.4407 507.503 56.5715C508.74 58.6679 510.424 60.3176 512.555 61.5204C514.72 62.7233 517.126 63.3247 519.772 63.3247Z" fill="#0E4652"/>
<path d="M569.099 67.5004L561.314 56.4168C560.352 56.4856 559.596 56.5199 559.046 56.5199H550.128V67.5004H544.972V31.4144H559.046C563.72 31.4144 567.397 32.5313 570.078 34.7652C572.759 36.9991 574.099 40.075 574.099 43.9929C574.099 46.7767 573.412 49.1481 572.037 51.107C570.662 53.066 568.703 54.4923 566.16 55.3858L574.718 67.5004H569.099ZM558.891 52.1381C562.156 52.1381 564.648 51.4335 566.366 50.0245C568.085 48.6154 568.944 46.6049 568.944 43.9929C568.944 41.381 568.085 39.3877 566.366 38.013C564.648 36.6039 562.156 35.8993 558.891 35.8993H550.128V52.1381H558.891Z" fill="#0E4652"/>
</g>
<path fill-rule="evenodd" clip-rule="evenodd" d="M128.226 48.2258L108.085 68.3669L80 40.2823L51.9153 68.3669L31.7742 48.2258L19.8589 60.1411L51.9153 92.1976L80 64.1129L108.085 92.1976L140.141 60.1411L128.226 48.2258Z" fill="url(#paint0_linear_1584_42)"/>
<path fill-rule="evenodd" clip-rule="evenodd" d="M148.085 68.0847L108.085 108.085L80 80L51.9153 108.085L11.9153 68.0847L-4.00521e-06 80L51.9153 131.915L80 103.831L108.085 131.915L160 80L148.085 68.0847Z" fill="url(#paint1_linear_1584_42)"/>
<path fill-rule="evenodd" clip-rule="evenodd" d="M80 2.67836e-06L40 40L51.9153 51.9153L80 23.8306L108.085 51.9153L120 40L80 2.67836e-06Z" fill="#0E4652"/>
<path fill-rule="evenodd" clip-rule="evenodd" d="M80 159.836L100.341 139.495L88.4254 127.58L80 136.005L71.5746 127.58L59.6593 139.495L80 159.836Z" fill="#0E4652"/>
<defs>
<linearGradient id="paint0_linear_1584_42" x1="49.9294" y1="30.0706" x2="110.071" y2="90.2117" gradientUnits="userSpaceOnUse">
<stop stop-color="#FEF08A"/>
<stop offset="1" stop-color="#FACC15"/>
</linearGradient>
<linearGradient id="paint1_linear_1584_42" x1="40" y1="40" x2="120" y2="120" gradientUnits="userSpaceOnUse">
<stop stop-color="#FEF08A"/>
<stop offset="1" stop-color="#FACC15"/>
</linearGradient>
</defs>
</svg>
