<svg width="80" height="36" viewBox="0 0 80 36" fill="none" xmlns="http://www.w3.org/2000/svg">
<path d="M11.322 1.156H3.24C3.024 1.156 2.538 1.084 1.458 1.012L1.404 1.03C1.404 1.732 1.476 3.622 1.548 4.378L1.998 4.252C2.34 3.694 2.898 2.578 3.204 2.002C4.626 1.966 6.966 2.02 7.992 2.038V2.092C5.742 5.404 1.71 11.2 0.648002 12.802L0.828002 13C5.742 13 10.35 13.09 11.07 13.09C11.214 12.586 11.556 10.21 11.556 9.544L11.16 9.616C10.674 10.228 9.756 11.488 9.216 12.154C8.568 12.154 5.022 12.1 4.338 12.1L4.32 12.064C6.894 8.05 10.8 2.254 11.322 1.426V1.156Z" fill="#0B24FB"/>
<path d="M27.1534 1.642L27.3154 2.182C27.3694 2.344 27.3514 2.488 27.2974 2.65C25.8034 6.376 23.9134 10.894 23.4454 11.776L22.2034 12.514L22.0594 13.018C22.7254 13.018 23.3914 13 24.0394 13C24.6874 13 25.3354 13.018 26.0014 13.018L26.1454 12.514L24.7234 11.794C24.9394 11.092 25.1554 10.444 25.6774 9.094C28.1254 9.13 28.9354 9.058 29.5474 9.022C30.0334 10.336 30.5194 11.578 30.6454 11.956L30.0154 12.55L29.8534 13.018C30.5554 13.018 31.2394 13 31.9414 13C32.8774 13 33.8134 13.018 34.7314 13.018L34.8934 12.532C33.5614 11.956 33.3634 11.83 33.0034 10.912C30.7534 5.206 29.8174 2.866 29.5654 2.11C29.3494 1.534 29.2954 1.462 29.2954 0.903997L29.2234 0.795998L27.1534 1.642ZM27.7294 3.586C28.0714 4.684 28.5754 6.088 29.2414 8.05C28.6654 8.05 26.6494 7.978 26.0734 7.978C26.4694 6.862 26.7034 6.196 27.6934 3.586H27.7294Z" fill="#0B24FB"/>
<path d="M51.8809 0.813997C48.9649 0.813997 45.0769 2.74 45.0769 7.168C45.0769 11.452 48.5149 13.342 51.9889 13.342C52.9429 13.342 54.5089 13.036 55.0489 12.856C55.3369 12.514 56.2189 11.056 56.4709 10.246L56.1649 9.868C55.4629 10.408 54.5629 11.2 53.4829 12.262C53.2849 12.316 53.1049 12.334 52.7629 12.334C49.5589 12.334 47.8849 9.814 47.8849 7.042C47.8849 4.324 49.5589 1.75 52.6549 1.75C53.5009 1.75 54.0949 1.93 54.4189 2.128C54.5989 2.812 54.9409 3.856 55.2109 4.522L55.6429 4.36C55.8229 3.892 56.3809 1.588 56.4349 1.048L56.3269 0.957998C55.8949 1.012 55.1749 1.156 54.5989 1.39C54.0589 1.084 53.2129 0.813997 51.8809 0.813997Z" fill="#0B24FB"/>
<path d="M79.6157 1.156C79.2197 1.138 77.6357 1.048 75.9977 1.102C75.9437 1.3 75.9437 1.642 75.9437 2.02C75.4397 2.866 74.3597 4.234 71.8937 7.168V7.276C73.1357 9.112 74.4857 10.786 75.3317 11.668C76.3397 12.748 77.0597 13.252 79.5617 13.27L79.6697 13.126C79.4897 12.82 79.1297 12.352 77.8157 10.678C76.6277 9.148 74.9717 7.078 74.0717 5.854V5.8C75.2417 4.342 76.1777 3.316 76.8077 2.686C76.9697 2.506 77.2397 2.398 77.3477 2.362C77.9057 2.182 79.0937 1.804 79.4537 1.624L79.6157 1.156ZM67.5737 1.642L68.9237 2.254V6.826C68.9237 9.814 68.8877 11.614 68.8157 11.866L67.5197 12.514L67.3757 13.018C68.2937 13.018 69.2117 13 70.1117 13C71.0657 13 72.0017 13.018 72.9377 13.018L73.1357 12.514L71.5697 11.866C71.5337 11.668 71.4797 9.814 71.4797 6.826V2.29L72.6497 1.642L72.7937 1.138C71.8937 1.138 71.0117 1.156 70.1117 1.156C69.3197 1.156 68.5277 1.138 67.7357 1.138L67.5737 1.642Z" fill="#0B24FB"/>
<path d="M0.792002 23.642L2.124 24.272V28.754C2.124 30.95 2.034 33.488 2.016 33.866L0.738002 34.514L0.594002 35.018C1.512 35.018 2.412 35 3.312 35C4.104 35 4.86 35.018 5.634 35.018L5.778 34.514L4.698 33.848C4.644 32.084 4.68 30.572 4.68 29.24H7.578C8.496 29.24 9.252 29.204 9.72 29.132C9.72 30.68 9.756 32.246 9.684 33.866L8.856 34.496L8.694 35.018C9.504 35.018 10.314 35 11.106 35C12.006 35 12.924 35.018 13.824 35.018L13.95 34.514L12.402 33.848C12.33 33.614 12.276 30.896 12.276 28.88V24.29L13.662 23.642L13.788 23.138C12.87 23.138 11.952 23.156 11.034 23.156C10.35 23.156 9.666 23.138 8.982 23.138L8.856 23.642L9.72 24.272V28.196H4.68V24.29L5.562 23.696L5.724 23.138C4.968 23.138 4.194 23.156 3.438 23.156C2.61 23.156 1.782 23.138 0.954002 23.138L0.792002 23.642Z" fill="#0B24FB"/>
<path d="M29.6319 23.642L29.7939 24.182C29.8479 24.344 29.8299 24.488 29.7759 24.65C28.2819 28.376 26.3919 32.894 25.9239 33.776L24.6819 34.514L24.5379 35.018C25.2039 35.018 25.8699 35 26.5179 35C27.1659 35 27.8139 35.018 28.4799 35.018L28.6239 34.514L27.2019 33.794C27.4179 33.092 27.6339 32.444 28.1559 31.094C30.6039 31.13 31.4139 31.058 32.0259 31.022C32.5119 32.336 32.9979 33.578 33.1239 33.956L32.4939 34.55L32.3319 35.018C33.0339 35.018 33.7179 35 34.4199 35C35.3559 35 36.2919 35.018 37.2099 35.018L37.3719 34.532C36.0399 33.956 35.8419 33.83 35.4819 32.912C33.2319 27.206 32.2959 24.866 32.0439 24.11C31.8279 23.534 31.7739 23.462 31.7739 22.904L31.7019 22.796L29.6319 23.642ZM30.2079 25.586C30.5499 26.684 31.0539 28.088 31.7199 30.05C31.1439 30.05 29.1279 29.978 28.5519 29.978C28.9479 28.862 29.1819 28.196 30.1719 25.586H30.2079Z" fill="#0B24FB"/>
<path d="M47.889 23.624L49.329 24.29V28.826C49.329 31.634 49.293 33.722 49.257 33.866L47.799 34.514L47.655 35.018C48.717 35.018 49.635 35 50.535 35C55.089 35 56.097 35.072 56.781 35.072C56.925 34.622 57.393 32.228 57.429 31.706L57.105 31.562C56.673 31.994 55.611 33.47 55.107 34.19L51.957 33.992C51.921 33.434 51.885 31.67 51.885 28.808V24.29L53.073 23.66L53.235 23.138C52.353 23.138 51.471 23.156 50.607 23.156C49.743 23.156 48.915 23.138 48.051 23.138L47.889 23.624Z" fill="#0B24FB"/>
<path d="M68.011 23.624L69.451 24.29V28.826C69.451 31.634 69.415 33.722 69.379 33.866L67.921 34.514L67.777 35.018C68.839 35.018 69.757 35 70.657 35C75.211 35 76.219 35.072 76.903 35.072C77.047 34.622 77.515 32.228 77.551 31.706L77.227 31.562C76.795 31.994 75.733 33.47 75.229 34.19L72.079 33.992C72.043 33.434 72.007 31.67 72.007 28.808V24.29L73.195 23.66L73.357 23.138C72.475 23.138 71.593 23.156 70.729 23.156C69.865 23.156 69.037 23.138 68.173 23.138L68.011 23.624Z" fill="#0B24FB"/>
</svg>
