<?xml version="1.0" encoding="UTF-8"?>
<svg width="512px" height="384px" viewBox="0 0 512 384" version="1.1" xmlns="http://www.w3.org/2000/svg" xmlns:xlink="http://www.w3.org/1999/xlink">
    <!-- Generator: Sketch 53.1 (72631) - https://sketchapp.com -->
    <title>Pages</title>
    <desc>Created with Sketch.</desc>
    <g id="Pages" stroke="none" stroke-width="1" fill="none" fill-rule="evenodd">
        <g id="Page" transform="translate(92.000000, 54.000000)">
            <path d="M64,0 L96,32 L96,128 L0,128 L0,0 L64,0 Z" id="Combined-Shape" fill="#416BD8"></path>
            <polygon id="Rectangle-Copy-2" fill="#A0B5EB" points="64 0 96 32 64 32"></polygon>
        </g>
        <g id="Page-Copy-3" transform="translate(92.000000, 202.000000)">
            <path d="M64,0 L96,32 L96,128 L0,128 L0,0 L64,0 Z" id="Combined-Shape" fill="#7090E2"></path>
            <polygon id="Rectangle-Copy-2" fill="#416BD8" points="64 0 96 32 64 32"></polygon>
        </g>
        <g id="Page-Copy" transform="translate(208.000000, 54.000000)">
            <path d="M64,0 L96,32 L96,128 L0,128 L0,0 L64,0 Z" id="Combined-Shape" fill="#CFDAF5"></path>
            <polygon id="Rectangle-Copy-2" fill="#416BD8" points="64 0 96 32 64 32"></polygon>
        </g>
        <g id="Page-Copy-4" transform="translate(208.000000, 202.000000)">
            <path d="M64,0 L96,32 L96,128 L0,128 L0,0 L64,0 Z" id="Combined-Shape" fill="#416BD8"></path>
            <polygon id="Rectangle-Copy-2" fill="#1146CE" points="64 0 96 32 64 32"></polygon>
        </g>
        <g id="Page-Copy-2" transform="translate(324.000000, 54.000000)">
            <path d="M64,0 L96,32 L96,128 L0,128 L0,0 L64,0 Z" id="Combined-Shape" fill="#1146CE"></path>
            <polygon id="Rectangle-Copy-2" fill="#7090E2" points="64 0 96 32 64 32"></polygon>
        </g>
        <g id="Page-Copy-5" transform="translate(324.000000, 202.000000)">
            <path d="M64,0 L96,32 L96,128 L0,128 L0,0 L64,0 Z" id="Combined-Shape" fill="#CFDAF5"></path>
            <polygon id="Rectangle-Copy-2" fill="#1146CE" points="64 0 96 32 64 32"></polygon>
        </g>
        <polygon id="Triangle" fill="#FFFFFF" transform="translate(140.000000, 279.000000) rotate(180.000000) translate(-140.000000, -279.000000) " points="140 267 156 291 124 291"></polygon>
        <path d="M138.353468,129.400447 C138.353468,130.927674 137.739007,132.263976 136.510067,133.409396 C135.281127,134.554816 133.831477,135.127517 132.161074,135.127517 C129.536154,135.127517 127.519768,134.256534 126.111857,132.514541 C124.703945,130.772549 124,128.362431 124,125.284116 C124,122.420567 125.211024,119.533199 127.63311,116.621924 C130.055195,113.710649 132.972392,111.503363 136.384787,110 L137.959732,112.541387 C135.263223,113.853847 133.151387,115.38105 131.624161,117.123043 C130.096935,118.865035 129.214021,120.976871 128.975391,123.458613 L130.979866,123.458613 C132.459366,123.458613 133.664425,123.625651 134.595078,123.959732 C135.525732,124.293812 136.277402,124.759132 136.850112,125.355705 C137.398959,125.928414 137.786725,126.560772 138.013423,127.252796 C138.24012,127.944821 138.353468,128.660697 138.353468,129.400447 Z M156,129.400447 C156,130.927674 155.385539,132.263976 154.1566,133.409396 C152.92766,134.554816 151.47801,135.127517 149.807606,135.127517 C147.182686,135.127517 145.166301,134.256534 143.758389,132.514541 C142.350478,130.772549 141.646532,128.362431 141.646532,125.284116 C141.646532,122.420567 142.857557,119.533199 145.279642,116.621924 C147.701727,113.710649 150.618924,111.503363 154.03132,110 L155.606264,112.541387 C152.909755,113.853847 150.79792,115.38105 149.270694,117.123043 C147.743467,118.865035 146.860553,120.976871 146.621924,123.458613 L148.626398,123.458613 C150.105899,123.458613 151.310957,123.625651 152.241611,123.959732 C153.172264,124.293812 153.923934,124.759132 154.496644,125.355705 C155.045491,125.928414 155.433258,126.560772 155.659955,127.252796 C155.886653,127.944821 156,128.660697 156,129.400447 Z" id="“" fill="#FBFAF6" fill-rule="nonzero"></path>
        <circle id="Oval" fill="#FBFAF6" cx="372" cy="123" r="16"></circle>
        <g id="Sliders" transform="translate(232.000000, 263.000000)" fill="#FBFAF6">
            <rect id="Rectangle" x="0" y="4" width="48" height="4" rx="2"></rect>
            <rect id="Rectangle-Copy-3" x="0" y="20" width="48" height="4" rx="2"></rect>
            <circle id="Oval" cx="34" cy="22" r="6"></circle>
            <circle id="Oval-Copy" cx="13" cy="6" r="6"></circle>
        </g>
        <path d="M376,290 L359.286486,290 L359.286486,288.319666 C360.064869,288.262219 360.980175,288.122192 362.032432,287.899583 C363.08469,287.676974 363.610811,287.400511 363.610811,287.070188 C363.610811,286.955292 363.6,286.826037 363.578378,286.682418 C363.556757,286.538799 363.495496,286.344917 363.394595,286.100764 L360.778378,279.767199 L350.183784,279.767199 C349.938738,280.356037 349.66847,281.045398 349.372973,281.835302 C349.077476,282.625207 348.821623,283.328929 348.605405,283.946491 C348.33153,284.750757 348.16937,285.332405 348.118919,285.691452 C348.068468,286.0505 348.043243,286.301829 348.043243,286.445448 C348.043243,286.905029 348.392789,287.296385 349.091892,287.619527 C349.790994,287.94267 350.954947,288.176047 352.583784,288.319666 L352.583784,290 L340,290 L340,288.319666 C340.475678,288.290943 341.01261,288.215544 341.610811,288.093468 C342.209012,287.971392 342.681079,287.802642 343.027027,287.587213 C343.618021,287.242528 344.118917,286.818858 344.52973,286.316192 C344.940543,285.813525 345.282882,285.217516 345.556757,284.528145 C347.228837,280.492451 348.904496,276.449638 350.583784,272.399583 C352.263071,268.349528 354.118909,263.883045 356.151351,259 L360.475676,259 C363.300915,265.922434 365.513506,271.394235 367.113514,275.415566 C368.713522,279.436898 370.07567,282.768808 371.2,285.411397 C371.387388,285.842254 371.625224,286.23361 371.913514,286.585476 C372.201803,286.937343 372.61261,287.271252 373.145946,287.587213 C373.549552,287.817004 374.018015,287.989344 374.551351,288.104239 C375.084687,288.219134 375.567565,288.290943 376,288.319666 L376,290 Z M360,278 L355.466993,267 L351,278 L360,278 Z M405,289.863118 C404.346402,290.140052 403.57398,290.395119 402.682709,290.628327 C401.791439,290.861535 400.848193,290.978137 399.852941,290.978137 C398.025838,290.978137 396.681525,290.712138 395.819964,290.180133 C394.958403,289.648128 394.371659,288.88657 394.059715,287.895437 L393.926025,287.895437 C393.420972,288.391004 392.934494,288.813686 392.466578,289.163498 C391.998661,289.51331 391.497329,289.812103 390.962567,290.059886 C390.264405,290.380547 389.592249,290.617395 388.946078,290.770437 C388.299908,290.92348 387.39751,291 386.238859,291 C384.515737,291 383.045164,290.500797 381.827094,289.502376 C380.609025,288.503956 380,287.18125 380,285.534221 C380,284.586814 380.133689,283.781531 380.40107,283.118346 C380.668451,282.455161 381.047235,281.868507 381.537433,281.358365 C381.983068,280.89195 382.499254,280.505705 383.086007,280.19962 C383.67276,279.893535 384.315207,279.609317 385.013369,279.346958 C386.350274,278.865967 387.954536,278.366764 389.826203,277.849335 C391.69787,277.331905 393.064464,276.86914 393.926025,276.461027 L393.926025,274.362167 C393.926025,273.99778 393.896316,273.516796 393.836898,272.919202 C393.77748,272.321607 393.651219,271.81876 393.458111,271.410646 C393.250148,270.944231 392.923353,270.550699 392.477718,270.230038 C392.032083,269.909377 391.445339,269.749049 390.717469,269.749049 C390.063871,269.749049 389.517976,269.840145 389.079768,270.022338 C388.64156,270.204532 388.288771,270.390367 388.02139,270.579848 C388.065954,270.871358 388.192215,271.315903 388.400178,271.913498 C388.608141,272.511093 388.712121,273.086816 388.712121,273.640684 C388.712121,273.888468 388.645277,274.198192 388.511586,274.569867 C388.377896,274.941542 388.18479,275.236691 387.932264,275.455323 C387.59061,275.746833 387.208113,275.97275 386.784759,276.13308 C386.361406,276.29341 385.711531,276.373574 384.835116,276.373574 C383.587338,276.373574 382.644091,276.078425 382.005348,275.488118 C381.366604,274.897811 381.047237,274.128965 381.047237,273.181559 C381.047237,272.365332 381.377745,271.632925 382.03877,270.984316 C382.699795,270.335707 383.50564,269.800065 384.456328,269.377376 C385.392162,268.940112 386.469097,268.601237 387.687166,268.360741 C388.905235,268.120246 390.03416,268 391.073975,268 C392.514862,268 393.836892,268.083808 395.040107,268.251426 C396.243322,268.419044 397.327684,268.765207 398.293226,269.289924 C399.214205,269.800066 399.945779,270.539761 400.487968,271.50903 C401.030157,272.4783 401.301248,273.742704 401.301248,275.302281 C401.301248,276.949311 401.267826,278.902397 401.20098,281.161597 C401.134135,283.420797 401.100713,284.907474 401.100713,285.621673 C401.100713,286.27757 401.200979,286.794992 401.401515,287.173954 C401.602051,287.552917 401.910277,287.837135 402.326203,288.026616 C402.57873,288.14322 402.976082,288.212452 403.518271,288.234316 C404.06046,288.256179 404.554365,288.26711 405,288.26711 L405,289.863118 Z M394,278 C393.199996,278.273383 392.407147,278.586329 391.621429,278.938849 C390.83571,279.291369 390.19286,279.661869 389.692857,280.05036 C389.164283,280.453239 388.750001,280.967623 388.45,281.593525 C388.149998,282.219428 388,282.95683 388,283.805755 C388,284.928063 388.253569,285.741005 388.760714,286.244604 C389.26786,286.748204 389.892853,287 390.635714,287 C391.421433,287 392.067855,286.838131 392.575,286.514388 C393.082145,286.190646 393.52857,285.791369 393.914286,285.316547 L394,278 Z" id="Aa" fill="#1146CE" fill-rule="nonzero"></path>
        <g id="Lines" transform="translate(232.000000, 114.000000)" stroke="#1146CE" stroke-linecap="round" stroke-width="3">
            <path d="M-3.55271368e-15,0.5 L48,0.5" id="Line" stroke-dasharray="8,6" transform="translate(24.000000, 0.500000) rotate(0.000000) translate(-24.000000, -0.500000) "></path>
            <path d="M-3.55271368e-15,10.5 L48,10.5" id="Line-Copy" stroke-dasharray="12,6" transform="translate(24.000000, 10.500000) rotate(0.000000) translate(-24.000000, -10.500000) "></path>
            <path d="M-3.55271368e-15,20.5 L48,20.5" id="Line-Copy-2" stroke-dasharray="17,6" transform="translate(24.000000, 20.500000) rotate(180.000000) translate(-24.000000, -20.500000) "></path>
        </g>
    </g>
</svg>